<svg width="70" height="70" viewBox="0 0 70 70" fill="none" xmlns="http://www.w3.org/2000/svg">
<path d="M65.625 24.2932C65.625 22.3792 65.2661 20.5847 64.5483 18.9099C63.8306 17.2351 62.8337 15.7797 61.5576 14.5435C60.3215 13.3073 58.866 12.3303 57.1912 11.6125C55.5163 10.8549 53.7418 10.4761 51.8677 10.4761C51.1499 10.4761 50.4321 10.5359 49.7144 10.6555C49.0364 10.7751 48.3586 10.9346 47.6807 11.134C46.285 9.02059 44.4507 7.36572 42.1777 6.16943C39.9446 4.97314 37.552 4.375 35 4.375C32.4479 4.375 30.0354 4.97314 27.7625 6.16943C25.5294 7.36572 23.715 9.02059 22.3193 11.134C21.6415 10.9346 20.9436 10.7751 20.2258 10.6555C19.548 10.5359 18.8501 10.4761 18.1323 10.4761C16.2581 10.4761 14.4836 10.8549 12.8088 11.6125C11.134 12.3303 9.65861 13.3073 8.38257 14.5435C7.14641 15.7797 6.16943 17.2351 5.45166 18.9099C4.73389 20.5847 4.375 22.3792 4.375 24.2932C4.375 26.0478 4.69401 27.7225 5.33203 29.3177C5.97005 30.8728 6.82739 32.2685 7.90405 33.5046C9.02059 34.7408 10.3166 35.7577 11.792 36.5551C13.3073 37.3128 14.9223 37.7913 16.6369 37.9907V64.0699C16.6369 64.5085 16.7766 64.8673 17.0557 65.1465C17.3746 65.4655 17.7336 65.625 18.1323 65.625H51.8677C52.2665 65.625 52.6054 65.4655 52.8845 65.1465C53.2035 64.8673 53.363 64.5085 53.363 64.0699V37.9907C55.0777 37.7913 56.6728 37.3128 58.1482 36.5551C59.6635 35.7577 60.9594 34.7408 62.0361 33.5046C63.1527 32.2685 64.03 30.8728 64.6679 29.3177C65.306 27.7225 65.625 26.0478 65.625 24.2932ZM24.4726 36.5551C25.1904 36.1564 25.8883 35.6978 26.5662 35.1795C27.244 34.661 27.8621 34.1028 28.4204 33.5046C29.4173 33.9832 30.4741 34.362 31.5906 34.6411C32.7071 34.8804 33.8436 35 35 35C36.1564 35 37.2929 34.8804 38.4095 34.6411C39.526 34.362 40.5827 33.9832 41.5796 33.5046C42.1378 34.1028 42.7559 34.661 43.4338 35.1795C44.1117 35.6978 44.8096 36.1564 45.5273 36.5551C46.285 36.9141 47.0626 37.2131 47.8601 37.4524C48.6576 37.6917 49.4751 37.871 50.3125 37.9907V53.363H19.6875V37.9907C20.5249 37.871 21.3424 37.6917 22.1399 37.4524C22.9374 37.2131 23.715 36.9141 24.4726 36.5551ZM19.6875 62.5745V56.4136H50.3125V62.5745H19.6875ZM51.8677 35C50.153 35 48.538 34.6212 47.0227 33.8635C45.5074 33.1059 44.2314 32.0292 43.1946 30.6336C42.9952 30.3146 42.6962 30.1151 42.2973 30.0354C41.8986 29.9556 41.5397 30.0155 41.2207 30.2148C40.2637 30.7731 39.2468 31.2118 38.1701 31.5308C37.1334 31.8099 36.0766 31.9495 35 31.9495C33.9233 31.9495 32.8466 31.8099 31.77 31.5308C30.7333 31.2118 29.7364 30.7731 28.7793 30.2148C28.4603 30.0155 28.1014 29.9556 27.7026 30.0354C27.3039 30.1151 27.0048 30.3146 26.8054 30.6336C25.7686 32.0292 24.4926 33.1059 22.9773 33.8635C21.462 34.6212 19.847 35 18.1323 35C15.1814 35 12.6493 33.9632 10.5359 31.8896C8.46232 29.7762 7.42554 27.2441 7.42554 24.2932C7.42554 21.3424 8.46232 18.8302 10.5359 16.7566C12.6493 14.6431 15.1814 13.5864 18.1323 13.5864C18.6108 13.5864 19.0694 13.6063 19.5081 13.6462C19.9467 13.6861 20.3853 13.7659 20.824 13.8855C20.5448 14.5634 20.3255 15.2413 20.1661 15.9192C20.0065 16.5971 19.8868 17.2949 19.8071 18.0127C19.7274 18.4115 19.8271 18.7903 20.1062 19.1492C20.3853 19.4681 20.7243 19.6476 21.123 19.6875C21.5617 19.7274 21.9405 19.6276 22.2595 19.3884C22.5785 19.1093 22.758 18.7504 22.7979 18.3117C22.9175 17.5143 23.097 16.7366 23.3362 15.979C23.5754 15.2213 23.8944 14.4836 24.2932 13.7659C25.3699 11.8119 26.8652 10.2767 28.7793 9.16016C30.6934 8.00375 32.7669 7.42554 35 7.42554C37.2331 7.42554 39.3067 8.00375 41.2207 9.16016C43.1348 10.2767 44.6301 11.8119 45.7068 13.7659C46.1055 14.4836 46.4245 15.2213 46.6639 15.979C46.9031 16.7366 47.0826 17.5143 47.2022 18.3117C47.2421 18.7504 47.4214 19.1093 47.7405 19.3884C48.0595 19.6276 48.4384 19.7274 48.877 19.6875C49.2757 19.6476 49.6147 19.4681 49.8938 19.1492C50.173 18.7903 50.2726 18.4115 50.1929 18.0127C50.153 17.2949 50.0334 16.5971 49.834 15.9192C49.6745 15.2413 49.4552 14.5634 49.176 13.8855C49.6147 13.7659 50.0533 13.6861 50.492 13.6462C50.9306 13.6063 51.3891 13.5864 51.8677 13.5864C54.8185 13.5864 57.3307 14.6431 59.4043 16.7566C61.5178 18.8302 62.5744 21.3424 62.5744 24.2932C62.5744 27.2441 61.5178 29.7762 59.4043 31.8896C57.3307 33.9632 54.8185 35 51.8677 35Z" fill="#FFB3A9"/>
</svg>
