<svg width="70" height="70" viewBox="0 0 70 70" fill="none" xmlns="http://www.w3.org/2000/svg">
<path d="M65.2736 44.7498L58.0959 36.3159C57.6572 35.8374 57.1587 35.4785 56.6005 35.2392C56.0821 34.9601 55.5238 34.8205 54.9256 34.8205C54.3276 34.8205 53.7493 34.9402 53.191 35.1795C52.6328 35.4187 52.1343 35.7577 51.6957 36.1963L45.475 42.8357C45.1161 42.3173 44.6974 41.8189 44.2189 41.3403C43.7403 40.8219 43.222 40.3833 42.6637 40.0244C41.7865 39.3864 40.8094 38.9078 39.7328 38.5889C38.6961 38.23 37.6393 38.0505 36.5626 38.0505C35.3663 38.0505 34.2099 38.2499 33.0934 38.6487C32.0167 39.0076 31.0199 39.5459 30.1027 40.2636C29.5045 40.6625 28.9662 41.1409 28.4877 41.6992C28.0092 42.2176 27.5905 42.7958 27.2316 43.4339L21.31 36.3758C20.9112 35.8972 20.4327 35.5183 19.8745 35.2392C19.3161 34.9601 18.7379 34.8205 18.1398 34.8205C17.5416 34.8205 16.9634 34.9601 16.4052 35.2392C15.8868 35.4785 15.4083 35.8174 14.9696 36.2561L4.74136 47.7404C4.46223 48.0595 4.3426 48.4383 4.38248 48.877C4.42235 49.3156 4.6018 49.6744 4.92081 49.9536C5.23982 50.2328 5.5987 50.3524 5.99747 50.3125C6.4361 50.2726 6.79499 50.0931 7.07413 49.7742L17.3024 38.2898C17.422 38.1701 17.5416 38.0705 17.6613 37.9907C17.8208 37.9109 17.9803 37.8711 18.1398 37.8711C18.2993 37.8711 18.4388 37.9109 18.5585 37.9907C18.718 38.0705 18.8575 38.1901 18.9772 38.3496L41.4674 65.0867C41.627 65.2462 41.8064 65.3658 42.0057 65.4455C42.2451 65.5651 42.4643 65.625 42.6637 65.625C42.8233 65.625 42.9828 65.5851 43.1423 65.5054C43.3416 65.4655 43.5211 65.3858 43.6806 65.2661C43.9996 64.9869 44.1591 64.6281 44.1591 64.1895C44.1989 63.7906 44.0993 63.4318 43.86 63.1128L37.6393 55.7556L46.0732 46.7236C46.1529 46.6838 46.2127 46.6439 46.2526 46.604C46.2925 46.5243 46.3324 46.4445 46.3723 46.3648L53.9687 38.2898C54.0883 38.1701 54.2278 38.0705 54.3873 37.9907C54.5469 37.9109 54.7064 37.8711 54.8659 37.8711C55.0254 37.8711 55.1849 37.9109 55.3444 37.9907C55.5039 38.0705 55.6435 38.1901 55.7631 38.3496L62.9408 46.7236C63.2199 47.0426 63.5589 47.2221 63.9577 47.262C64.3963 47.3018 64.7752 47.1822 65.0941 46.9031C65.4131 46.6239 65.5926 46.285 65.6325 45.8862C65.6724 45.4476 65.5527 45.0688 65.2736 44.7498ZM29.3849 46.0058C29.9831 44.5304 30.9202 43.3541 32.1962 42.4768C33.5121 41.5596 34.9676 41.1011 36.5626 41.1011C37.9583 41.1011 39.2543 41.4799 40.4506 42.2376C41.6867 42.9553 42.6438 43.9323 43.3217 45.1685L35.6654 53.363L29.3849 46.0058ZM36.5626 35C36.124 35 35.7452 34.8604 35.4262 34.5813C35.1471 34.2623 35.0075 33.8835 35.0075 33.4449V30.3943C35.0075 29.9955 35.1471 29.6565 35.4262 29.3774C35.7452 29.0584 36.124 28.8989 36.5626 28.8989C36.9615 28.8989 37.3003 29.0584 37.5795 29.3774C37.8985 29.6565 38.058 29.9955 38.058 30.3943V33.4449C38.058 33.8835 37.8985 34.2623 37.5795 34.5813C37.3003 34.8604 36.9615 35 36.5626 35ZM44.2189 38.0505C44.0196 38.0505 43.8201 38.0107 43.6207 37.9309C43.4214 37.8512 43.2419 37.7514 43.0824 37.6318C42.8033 37.3128 42.6637 36.954 42.6637 36.5551C42.6637 36.1165 42.8033 35.7577 43.0824 35.4785L46.1928 32.3682C46.4719 32.089 46.8109 31.9495 47.2096 31.9495C47.6483 31.9495 48.0271 32.089 48.3461 32.3682C48.6252 32.6872 48.7648 33.066 48.7648 33.5046C48.7648 33.9034 48.6252 34.2623 48.3461 34.5813L45.2956 37.6318C45.1361 37.7514 44.9566 37.8512 44.7573 37.9309C44.5579 38.0107 44.3784 38.0505 44.2189 38.0505ZM28.9064 38.0505C28.7071 38.0505 28.5076 38.0107 28.3082 37.9309C28.1089 37.8512 27.9294 37.7514 27.7699 37.6318L24.7194 34.5813C24.4403 34.2623 24.3006 33.9034 24.3006 33.5046C24.3006 33.066 24.4403 32.6872 24.7194 32.3682C25.0384 32.089 25.3973 31.9495 25.796 31.9495C26.2347 31.9495 26.5936 32.089 26.8727 32.3682L29.9831 35.4785C30.2622 35.7577 30.4018 36.1165 30.4018 36.5551C30.4018 36.954 30.2622 37.3128 29.9831 37.6318C29.8236 37.7514 29.6441 37.8512 29.4448 37.9309C29.2454 38.0107 29.0659 38.0505 28.9064 38.0505ZM48.7648 10.5359C48.6851 10.5359 48.5854 10.5359 48.4657 10.5359C48.386 10.496 48.2863 10.4561 48.1666 10.4163C47.8875 10.2966 47.6682 10.1172 47.5087 9.87793C47.3492 9.59879 47.2694 9.29973 47.2694 8.98071C47.2694 8.90096 47.2495 8.78133 47.2096 8.62183C47.1697 8.42244 47.11 8.243 47.0302 8.08349C46.9106 7.92399 46.771 7.78442 46.6115 7.6648C46.452 7.50529 46.1529 7.42554 45.7143 7.42554C45.3155 7.42554 44.9566 7.28597 44.6376 7.00683C44.3584 6.68783 44.2189 6.32894 44.2189 5.93017C44.2189 5.49153 44.3584 5.13265 44.6376 4.85352C44.9566 4.53451 45.3155 4.375 45.7143 4.375C46.6713 4.375 47.4489 4.57438 48.047 4.97314C48.6851 5.33203 49.1835 5.79061 49.5424 6.34888C50.2202 5.87036 51.0178 5.43172 51.935 5.03296C52.892 4.59432 53.8889 4.375 54.9256 4.375C55.3245 4.375 55.6634 4.53451 55.9426 4.85352C56.2615 5.13265 56.421 5.49153 56.421 5.93017C56.421 6.32894 56.2615 6.68783 55.9426 7.00683C55.6634 7.28597 55.3245 7.42554 54.9256 7.42554C53.9288 7.42554 52.9319 7.78442 51.935 8.5022C50.9381 9.1801 50.2402 9.69848 49.8415 10.0574C49.7218 10.2169 49.5623 10.3365 49.3629 10.4163C49.1636 10.496 48.9642 10.5359 48.7648 10.5359ZM31.9569 10.4761C31.8772 10.4761 31.7775 10.496 31.6579 10.5359C31.5781 10.5359 31.4984 10.5359 31.4186 10.5359C30.7805 8.74145 29.664 7.26604 28.069 6.10962C26.5138 4.95321 24.7394 4.375 22.7455 4.375C21.2701 4.375 19.8745 4.71395 18.5585 5.39185C17.2425 6.06974 16.1659 7.00683 15.3285 8.20312C14.8101 7.96387 14.2718 7.78442 13.7135 7.6648C13.1552 7.50529 12.597 7.42554 12.0387 7.42554C9.92528 7.42554 8.11091 8.18318 6.59561 9.69848C5.12019 11.1739 4.38248 12.9684 4.38248 15.0818C4.38248 17.1952 5.12019 19.0096 6.59561 20.5249C8.11091 22.0003 9.92528 22.738 12.0387 22.738H31.9569C33.6317 22.738 35.0673 22.1399 36.2636 20.9436C37.4599 19.7473 38.058 18.3117 38.058 16.637C38.058 14.9222 37.4599 13.4668 36.2636 12.2705C35.0673 11.0742 33.6317 10.4761 31.9569 10.4761ZM31.9569 19.6875H12.0387C10.7627 19.6875 9.66609 19.2489 8.74893 18.3716C7.87165 17.4544 7.43302 16.3579 7.43302 15.0818C7.43302 13.8058 7.87165 12.7291 8.74893 11.8518C9.66609 10.9346 10.7627 10.4761 12.0387 10.4761C12.7166 10.4761 13.3547 10.6156 13.9528 10.8948C14.551 11.1739 15.0693 11.5527 15.5079 12.0312C15.7871 12.3503 16.126 12.5297 16.5248 12.5696C16.9634 12.6095 17.3423 12.4898 17.6613 12.2107C17.9803 11.9316 18.1398 11.5727 18.1398 11.134C18.1797 10.6954 18.0601 10.3365 17.7809 10.0574C17.7809 10.0175 17.7809 9.99756 17.7809 9.99756C18.3392 9.20003 19.0569 8.58195 19.9342 8.14331C20.8115 7.6648 21.7486 7.42554 22.7455 7.42554C24.4602 7.42554 25.9157 8.02368 27.1119 9.21997C28.3082 10.4163 28.9064 11.8717 28.9064 13.5864C28.9064 13.9852 29.0459 14.3441 29.3251 14.6631C29.6441 14.9422 30.003 15.0818 30.4018 15.0818C30.8404 15.0818 31.1993 14.9422 31.4784 14.6631C31.7975 14.3441 31.9569 13.9852 31.9569 13.5864C32.7944 13.5864 33.5121 13.8855 34.1103 14.4836C34.7084 15.0818 35.0075 15.7995 35.0075 16.637C35.0075 17.4744 34.7084 18.1921 34.1103 18.7903C33.5121 19.3884 32.7944 19.6875 31.9569 19.6875ZM57.9762 16.637C57.8566 16.637 57.7369 16.637 57.6173 16.637C57.5376 16.5971 57.4578 16.5572 57.3781 16.5174C57.099 16.3977 56.8597 16.2183 56.6603 15.979C56.5008 15.6999 56.421 15.4008 56.421 15.0818C56.421 15.042 56.4011 14.9222 56.3613 14.7229C56.3613 14.5235 56.3014 14.3441 56.1818 14.1845C56.1021 14.025 55.9624 13.8855 55.7631 13.7659C55.6036 13.6462 55.3245 13.5864 54.9256 13.5864C54.487 13.5864 54.1082 13.4468 53.7892 13.1677C53.5101 12.8487 53.3705 12.4699 53.3705 12.0312C53.3705 11.5926 53.5101 11.2337 53.7892 10.9546C54.1082 10.6356 54.487 10.4761 54.9256 10.4761C55.8827 10.4761 56.6603 10.6755 57.2585 11.0742C57.8964 11.473 58.3949 11.9515 58.7538 12.5098C59.4317 12.0312 60.2292 11.5727 61.1464 11.134C62.1034 10.6954 63.0804 10.4761 64.0773 10.4761C64.5159 10.4761 64.8748 10.6356 65.154 10.9546C65.473 11.2337 65.6325 11.5926 65.6325 12.0312C65.6325 12.4699 65.473 12.8487 65.154 13.1677C64.8748 13.4468 64.5159 13.5864 64.0773 13.5864C63.1203 13.5864 62.1234 13.9254 61.0866 14.6033C60.0896 15.2812 59.4118 15.7995 59.0528 16.1585C58.8934 16.318 58.714 16.4376 58.5145 16.5174C58.355 16.5971 58.1756 16.637 57.9762 16.637ZM48.7648 25.8484C48.6851 25.8484 48.5854 25.8484 48.4657 25.8484C48.386 25.8085 48.2863 25.7687 48.1666 25.7288C47.8875 25.6091 47.6682 25.4297 47.5087 25.1905C47.3492 24.9113 47.2694 24.6123 47.2694 24.2932C47.2694 24.2134 47.2495 24.0938 47.2096 23.9343C47.1697 23.735 47.11 23.5555 47.0302 23.396C46.9106 23.2365 46.771 23.0969 46.6115 22.9773C46.452 22.8178 46.1529 22.738 45.7143 22.738C45.3155 22.738 44.9566 22.5984 44.6376 22.3193C44.3584 22.0003 44.2189 21.6415 44.2189 21.2426C44.2189 20.804 44.3584 20.4452 44.6376 20.166C44.9566 19.847 45.3155 19.6875 45.7143 19.6875C46.6713 19.6875 47.4489 19.8869 48.047 20.2856C48.6851 20.6446 49.1835 21.1031 49.5424 21.6614C50.2202 21.1829 51.0178 20.7442 51.935 20.3455C52.892 19.9069 53.8889 19.6875 54.9256 19.6875C55.3245 19.6875 55.6634 19.847 55.9426 20.166C56.2615 20.4452 56.421 20.804 56.421 21.2426C56.421 21.6415 56.2615 22.0003 55.9426 22.3193C55.6634 22.5984 55.3245 22.738 54.9256 22.738C53.9288 22.738 52.9319 23.0969 51.935 23.8147C50.9381 24.4926 50.2402 25.011 49.8415 25.3698C49.7218 25.5294 49.5623 25.649 49.3629 25.7288C49.1636 25.8085 48.9642 25.8484 48.7648 25.8484Z" fill="#FFB3A9"/>
</svg>
