<svg width="50" height="44" viewBox="0 0 50 44" fill="none" xmlns="http://www.w3.org/2000/svg">
<path d="M34.2439 12.387C32.5292 12.387 31.0737 11.7888 29.8774 10.5925C28.6812 9.39624 28.083 7.94075 28.083 6.22608C28.083 4.55127 28.6812 3.11572 29.8774 1.91943C31.0737 0.723141 32.5292 0.125 34.2439 0.125C35.9187 0.125 37.3542 0.723141 38.5505 1.91943C39.7468 3.11572 40.345 4.55127 40.345 6.22608C40.345 7.94075 39.7468 9.39624 38.5505 10.5925C37.3542 11.7888 35.9187 12.387 34.2439 12.387ZM34.2439 3.17554C33.3666 3.17554 32.6289 3.47461 32.0307 4.07276C31.4326 4.6709 31.1335 5.38867 31.1335 6.22608C31.1335 7.10335 31.4326 7.84106 32.0307 8.43925C32.6289 9.03731 33.3666 9.33639 34.2439 9.33639C35.0813 9.33639 35.7991 9.03731 36.3973 8.43925C36.9954 7.84106 37.2944 7.10335 37.2944 6.22608C37.2944 5.38867 36.9954 4.6709 36.3973 4.07276C35.7991 3.47461 35.0813 3.17554 34.2439 3.17554ZM11.2751 12.387C10.996 12.387 10.7368 12.3271 10.4975 12.2075C10.2982 12.0879 10.1187 11.9085 9.95921 11.6692C9.71999 11.3502 9.64019 10.9913 9.71999 10.5925C9.8396 10.1539 10.0589 9.81493 10.3779 9.5757L19.5894 3.47461C19.9084 3.23535 20.2672 3.1556 20.666 3.23535C21.1046 3.27523 21.4436 3.45467 21.6829 3.77368L26.2288 9.93454C26.5079 10.2536 26.6076 10.6324 26.5279 11.0711C26.488 11.4698 26.2886 11.8088 25.9297 12.0879C25.6107 12.3271 25.2318 12.4268 24.7932 12.387C24.3944 12.3072 24.0555 12.1079 23.7763 11.7888L20.0678 6.82422L12.1126 12.0879C11.9929 12.2075 11.8533 12.2872 11.6938 12.3271C11.5343 12.367 11.3947 12.387 11.2751 12.387ZM48.0012 24.6489C47.7619 24.6489 47.5227 24.5891 47.2835 24.4695C47.0841 24.3498 46.9245 24.1904 46.8049 23.991C46.765 23.991 45.7482 23.0738 43.7544 21.2395C41.8005 19.4052 39.1287 18.488 35.7393 18.488C33.9847 18.488 32.2899 18.7871 30.6551 19.3852C29.0201 19.9834 27.3453 20.6613 25.6306 21.4189C23.8761 22.2165 22.0617 22.9542 20.1875 23.632C18.3532 24.31 16.3992 24.6489 14.3256 24.6489C12.2522 24.6489 10.3779 24.31 8.70313 23.632C7.0682 22.9542 5.67253 22.1965 4.51611 21.3591C3.3597 20.5217 2.46249 19.7641 1.82446 19.0862C1.22632 18.3684 0.88737 17.9697 0.807617 17.8899C0.568359 17.531 0.468669 17.1522 0.508545 16.7534C0.588298 16.3148 0.807617 15.9758 1.1665 15.7366C1.48551 15.4974 1.8444 15.4175 2.24317 15.4973C2.68181 15.5372 3.02075 15.7166 3.26001 16.0356C3.29989 16.0755 4.29679 17.0126 6.25073 18.8469C8.24455 20.6414 10.9362 21.5386 14.3256 21.5386C16.0803 21.5386 17.775 21.2395 19.4099 20.6414C21.0449 20.0432 22.7196 19.3653 24.4343 18.6076C26.1889 17.85 27.9833 17.1322 29.8176 16.4543C31.6919 15.7765 33.6657 15.4375 35.7393 15.4375C37.8128 15.4375 39.667 15.7765 41.302 16.4543C42.9768 17.1322 44.3924 17.8899 45.5488 18.7273C46.7053 19.5248 47.5826 20.2825 48.1807 21.0002C48.8187 21.718 49.1576 22.1168 49.1975 22.1965C49.4767 22.5156 49.5763 22.8943 49.4966 23.333C49.4567 23.7318 49.2573 24.0508 48.8985 24.2901C48.7788 24.4097 48.6392 24.5093 48.4798 24.5891C48.3203 24.629 48.1608 24.6489 48.0012 24.6489ZM48.0012 33.8005C47.7619 33.8005 47.5227 33.7607 47.2835 33.6809C47.0841 33.5613 46.9245 33.4018 46.8049 33.2024C46.765 33.1626 45.7482 32.2454 43.7544 30.4509C41.8005 28.6166 39.1287 27.6995 35.7393 27.6995C33.9847 27.6995 32.2899 27.9986 30.6551 28.5967C29.0201 29.1949 27.3453 29.8727 25.6306 30.6304C23.8761 31.3881 22.0617 32.1058 20.1875 32.7837C18.3532 33.4616 16.3992 33.8005 14.3256 33.8005C12.2522 33.8005 10.3779 33.4616 8.70313 32.7837C7.0682 32.1058 5.67253 31.3681 4.51611 30.5705C3.3597 29.7332 2.46249 28.9555 1.82446 28.2378C1.22632 27.52 0.88737 27.1412 0.807617 27.1013C0.568359 26.7424 0.468669 26.3636 0.508545 25.9648C0.588298 25.5262 0.807617 25.1873 1.1665 24.948C1.48551 24.6688 1.8444 24.5692 2.24317 24.6489C2.68181 24.6888 3.02075 24.8882 3.26001 25.247C3.29989 25.247 4.29679 26.1642 6.25073 27.9986C8.24455 29.8328 10.9362 30.75 14.3256 30.75C16.0803 30.75 17.775 30.4509 19.4099 29.8528C21.0449 29.2546 22.7196 28.5768 24.4343 27.8191C26.1889 27.0215 27.9833 26.3038 29.8176 25.6658C31.6919 24.9879 33.6657 24.6489 35.7393 24.6489C37.8128 24.6489 39.667 24.9879 41.302 25.6658C42.9768 26.3437 44.3924 27.1013 45.5488 27.9387C46.7053 28.7363 47.5826 29.4939 48.1807 30.2117C48.8187 30.9295 49.1576 31.3083 49.1975 31.3482C49.4767 31.7071 49.5763 32.1058 49.4966 32.5444C49.4567 32.9432 49.2573 33.2622 48.8985 33.5014C48.7788 33.6211 48.6392 33.7008 48.4798 33.7407C48.3203 33.7806 48.1608 33.8005 48.0012 33.8005Z" fill="#FFB3A9"/>
<path d="M48.0012 43.4282C47.7619 43.4282 47.5227 43.3884 47.2835 43.3086C47.0841 43.189 46.9245 43.0295 46.8049 42.83C46.765 42.7902 45.7482 41.8731 43.7544 40.0786C41.8005 38.2443 39.1287 37.3272 35.7393 37.3272C33.9847 37.3272 32.2899 37.6262 30.6551 38.2244C29.0201 38.8225 27.3453 39.5004 25.6306 40.2581C23.8761 41.0157 22.0617 41.7335 20.1875 42.4114C18.3532 43.0893 16.3992 43.4282 14.3256 43.4282C12.2522 43.4282 10.3779 43.0893 8.70313 42.4114C7.0682 41.7335 5.67253 40.9958 4.51611 40.1982C3.3597 39.3608 2.46249 38.5832 1.82446 37.8655C1.22632 37.1477 0.88737 36.7689 0.807617 36.729C0.568359 36.3701 0.468669 35.9913 0.508545 35.5925C0.588298 35.1538 0.807617 34.815 1.1665 34.5756C1.48551 34.2965 1.8444 34.1969 2.24317 34.2766C2.68181 34.3165 3.02075 34.5159 3.26001 34.8747C3.29989 34.8747 4.29679 35.7919 6.25073 37.6262C8.24455 39.4605 10.9362 40.3777 14.3256 40.3777C16.0803 40.3777 17.775 40.0786 19.4099 39.4805C21.0449 38.8823 22.7196 38.2044 24.4343 37.4468C26.1889 36.6492 27.9833 35.9315 29.8176 35.2935C31.6919 34.6155 33.6657 34.2766 35.7393 34.2766C37.8128 34.2766 39.667 34.6155 41.302 35.2935C42.9768 35.9714 44.3924 36.729 45.5488 37.5664C46.7053 38.364 47.5826 39.1216 48.1807 39.8394C48.8187 40.5571 49.1576 40.9359 49.1975 40.9758C49.4767 41.3348 49.5763 41.7335 49.4966 42.1721C49.4567 42.5709 49.2573 42.8899 48.8985 43.1291C48.7788 43.2487 48.6392 43.3285 48.4798 43.3684C48.3203 43.4082 48.1608 43.4282 48.0012 43.4282Z" fill="#FFB3A9"/>
</svg>
