<svg width="70" height="70" viewBox="0 0 70 70" fill="none" xmlns="http://www.w3.org/2000/svg">
<path d="M59.7188 59.5478H56.6682C56.2295 59.5478 55.8507 59.4083 55.5317 59.1291C55.2526 58.8101 55.113 58.4313 55.113 57.9927C55.113 57.554 55.2526 57.1951 55.5317 56.916C55.8507 56.597 56.2295 56.4375 56.6682 56.4375H59.7188C60.1574 56.4375 60.5162 56.597 60.7954 56.916C61.1144 57.1951 61.2739 57.554 61.2739 57.9927C61.2739 58.4313 61.1144 58.8101 60.7954 59.1291C60.5162 59.4083 60.1574 59.5478 59.7188 59.5478ZM13.7813 59.5478H10.7307C10.2921 59.5478 9.91324 59.4083 9.59424 59.1291C9.3151 58.8101 9.17554 58.4313 9.17554 57.9927C9.17554 57.554 9.3151 57.1951 9.59424 56.916C9.91324 56.597 10.2921 56.4375 10.7307 56.4375H13.7813C14.2199 56.4375 14.5788 56.597 14.8579 56.916C15.1769 57.1951 15.3364 57.554 15.3364 57.9927C15.3364 58.4313 15.1769 58.8101 14.8579 59.1291C14.5788 59.4083 14.2199 59.5478 13.7813 59.5478ZM63.2478 39.2707L56.0103 17.5581C55.6912 16.641 55.133 15.8434 54.3354 15.1655C53.5778 14.4478 52.7204 13.9692 51.7634 13.73C51.7235 13.6103 51.6836 13.4907 51.6438 13.3711C51.6039 13.2116 51.564 13.0521 51.5241 12.8926C51.1653 11.8558 50.7267 11.1978 50.2082 10.9187C49.7298 10.6396 49.3309 10.5 49.0119 10.5H36.75C36.5506 10.5 36.3114 10.5399 36.0323 10.6196C35.7531 10.6994 35.4739 10.8788 35.1948 11.158C34.9157 10.8788 34.6365 10.6994 34.3574 10.6196C34.1182 10.5399 33.8988 10.5 33.6994 10.5H21.4375C21.1185 10.5 20.6998 10.6396 20.1814 10.9187C19.663 11.1978 19.2443 11.8558 18.9253 12.8926C18.8854 13.0521 18.8455 13.1917 18.8057 13.3113C18.7658 13.4309 18.7259 13.5705 18.686 13.73C17.729 13.9692 16.8517 14.4478 16.0542 15.1655C15.2567 15.8434 14.7183 16.641 14.4392 17.5581L7.20166 39.2707C6.88265 40.148 6.62345 41.2247 6.42407 42.5007C6.22469 43.7369 6.125 44.8136 6.125 45.7307V51.8916C6.125 53.1278 6.56364 54.2044 7.44091 55.1216C8.35807 55.9989 9.45467 56.4375 10.7307 56.4375H59.7188C60.9948 56.4375 62.0715 55.9989 62.9487 55.1216C63.8659 54.2044 64.3244 53.1278 64.3244 51.8916V45.7307C64.3244 44.8136 64.2248 43.7369 64.0254 42.5007C63.826 41.2247 63.5668 40.148 63.2478 39.2707ZM37.2286 13.6103H48.5335C48.6132 13.8496 48.7129 14.2284 48.8325 14.7468C48.9522 15.2652 49.0119 15.9032 49.0119 16.6609C49.0119 17.3787 48.9522 18.0167 48.8325 18.5749C48.7129 19.0933 48.6132 19.4722 48.5335 19.7114H37.2286C37.1089 19.4722 36.9892 19.0933 36.8696 18.5749C36.7899 18.0167 36.75 17.3787 36.75 16.6609C36.75 15.9032 36.7899 15.2652 36.8696 14.7468C36.9892 14.2284 37.1089 13.8496 37.2286 13.6103ZM21.9161 13.6103H33.221C33.3007 13.8496 33.4004 14.2284 33.52 14.7468C33.6397 15.2652 33.6994 15.9032 33.6994 16.6609C33.6994 17.3787 33.6397 18.0167 33.52 18.5749C33.4004 19.0933 33.3007 19.4722 33.221 19.7114H21.9161C21.7964 19.4722 21.6767 19.0933 21.5571 18.5749C21.4774 18.0167 21.4375 17.3787 21.4375 16.6609C21.4375 15.9032 21.4774 15.2652 21.5571 14.7468C21.6767 14.2284 21.7964 13.8496 21.9161 13.6103ZM17.3103 18.5151C17.39 18.2759 17.5296 18.0366 17.729 17.7974C17.9284 17.5581 18.1477 17.3587 18.3869 17.1992C18.3869 17.7974 18.4268 18.3756 18.5066 18.9338C18.6262 19.4523 18.7658 19.9308 18.9253 20.3694C19.2443 21.4061 19.663 22.0641 20.1814 22.3433C20.6998 22.6224 21.1185 22.7619 21.4375 22.7619H33.6994C33.8988 22.7619 34.1182 22.7221 34.3574 22.6423C34.6365 22.5626 34.9157 22.3832 35.1948 22.104C35.4739 22.3832 35.7531 22.5626 36.0323 22.6423C36.3114 22.7221 36.5506 22.7619 36.75 22.7619H49.0119C49.3309 22.7619 49.7298 22.6224 50.2082 22.3433C50.7267 22.0641 51.1653 21.4061 51.5241 20.3694C51.6836 19.9308 51.8033 19.4523 51.8831 18.9338C51.9628 18.3756 52.0226 17.7974 52.0625 17.1992C52.3017 17.3587 52.5012 17.5581 52.6607 17.7974C52.86 18.0366 53.0195 18.2759 53.1391 18.5151L55.5317 25.8125H14.8579L17.3103 18.5151ZM13.8411 28.9228H56.5486L60.3767 40.2876C60.4166 40.4072 60.4565 40.5467 60.4963 40.7063C60.5362 40.8658 60.5761 41.0452 60.616 41.2447C60.4963 41.2048 60.3567 41.1848 60.1973 41.1848C60.0378 41.1449 59.8783 41.125 59.7188 41.125H10.7307C10.5712 41.125 10.4117 41.1449 10.2522 41.1848C10.0927 41.1848 9.93319 41.2048 9.77368 41.2447C9.85344 41.0452 9.91324 40.8658 9.95313 40.7063C9.993 40.5467 10.0329 40.4072 10.0728 40.2876L13.8411 28.9228ZM61.2739 51.8916C61.2739 52.2904 61.1144 52.6492 60.7954 52.9683C60.5162 53.2474 60.1574 53.3869 59.7188 53.3869H10.7307C10.2921 53.3869 9.91324 53.2474 9.59424 52.9683C9.3151 52.6492 9.17554 52.2904 9.17554 51.8916V45.7307C9.17554 45.332 9.3151 44.993 9.59424 44.7139C9.91324 44.3948 10.2921 44.2353 10.7307 44.2353H59.7188C60.1574 44.2353 60.5162 44.3948 60.7954 44.7139C61.1144 44.993 61.2739 45.332 61.2739 45.7307V51.8916Z" fill="#FFB3A9"/>
</svg>
