<svg width="70" height="70" viewBox="0 0 70 70" fill="none" xmlns="http://www.w3.org/2000/svg">
<path d="M59.7188 52.9375H53.6177C53.179 52.9375 52.8002 52.7979 52.4812 52.5188C52.2021 52.1998 52.0625 51.8409 52.0625 51.4421C52.0625 51.0035 52.2021 50.6446 52.4812 50.3655C52.8002 50.0465 53.179 49.887 53.6177 49.887H59.7188C60.1574 49.887 60.5162 49.7474 60.7954 49.4683C61.1144 49.1493 61.2739 48.7705 61.2739 48.3318V11.6057C61.2739 11.1671 61.1144 10.8082 60.7954 10.5291C60.5162 10.21 60.1574 10.0505 59.7188 10.0505H10.7307C10.2921 10.0505 9.91324 10.21 9.59424 10.5291C9.3151 10.8082 9.17554 11.1671 9.17554 11.6057V48.3318C9.17554 48.7705 9.3151 49.1493 9.59424 49.4683C9.91324 49.7474 10.2921 49.887 10.7307 49.887H16.8318C17.2704 49.887 17.6293 50.0465 17.9085 50.3655C18.2275 50.6446 18.3869 51.0035 18.3869 51.4421C18.3869 51.8409 18.2275 52.1998 17.9085 52.5188C17.6293 52.7979 17.2704 52.9375 16.8318 52.9375H10.7307C9.45467 52.9375 8.35807 52.4988 7.44091 51.6216C6.56364 50.7044 6.125 49.6078 6.125 48.3318V11.6057C6.125 10.3297 6.56364 9.25301 7.44091 8.37573C8.35807 7.45858 9.45467 7 10.7307 7H59.7188C60.9948 7 62.0715 7.45858 62.9487 8.37573C63.8659 9.25301 64.3244 10.3297 64.3244 11.6057V48.3318C64.3244 49.6078 63.8659 50.7044 62.9487 51.6216C62.0715 52.4988 60.9948 52.9375 59.7188 52.9375ZM35.1948 62.149C33.9587 62.149 32.882 61.7103 31.9648 60.833C31.0875 59.9159 30.6489 58.8192 30.6489 57.5432C30.6489 56.2672 31.0875 55.1905 31.9648 54.3132C32.882 53.3961 33.9587 52.9375 35.1948 52.9375C36.4709 52.9375 37.5475 53.3961 38.4248 54.3132C39.3419 55.1905 39.8005 56.2672 39.8005 57.5432C39.8005 58.8192 39.3419 59.9159 38.4248 60.833C37.5475 61.7103 36.4709 62.149 35.1948 62.149ZM35.1948 55.9881C34.7961 55.9881 34.4371 56.1475 34.1182 56.4665C33.8391 56.7457 33.6994 57.1046 33.6994 57.5432C33.6994 57.9819 33.8391 58.3606 34.1182 58.6797C34.4371 58.9588 34.7961 59.0984 35.1948 59.0984C35.6334 59.0984 35.9924 58.9588 36.2715 58.6797C36.5905 58.3606 36.75 57.9819 36.75 57.5432C36.75 57.1046 36.5905 56.7457 36.2715 56.4665C35.9924 56.1475 35.6334 55.9881 35.1948 55.9881ZM24.6675 52.8777C24.5479 52.8777 24.4083 52.8578 24.2488 52.8179C24.1291 52.778 24.0095 52.7182 23.8899 52.6384C23.531 52.4391 23.2917 52.14 23.1721 51.7412C23.0525 51.3025 23.1123 50.9038 23.3516 50.545C23.9497 49.5082 24.6675 48.591 25.5049 47.7934C26.3422 46.9561 27.2594 46.2383 28.2563 45.6402C29.333 45.042 30.4496 44.5834 31.606 44.2644C32.8023 43.9454 33.9985 43.7859 35.1948 43.7859C36.431 43.7859 37.6273 43.9454 38.7837 44.2644C39.98 44.5834 41.0965 45.042 42.1333 45.6402C43.1701 46.2383 44.1072 46.9561 44.9446 47.7934C45.7819 48.6309 46.4998 49.548 47.0979 50.545C47.2973 50.9038 47.3372 51.3025 47.2176 51.7412C47.1378 52.14 46.9185 52.4391 46.5596 52.6384C46.2007 52.8378 45.8019 52.8977 45.3633 52.8179C44.9645 52.6983 44.6654 52.459 44.466 52.1001C43.509 50.4652 42.1931 49.1892 40.5183 48.272C38.8834 47.3149 37.1089 46.8365 35.1948 46.8365C33.3206 46.8365 31.5461 47.3149 29.8713 48.272C28.2364 49.1892 26.9404 50.4652 25.9834 52.1001C25.8239 52.3393 25.6245 52.5387 25.3853 52.6983C25.146 52.8179 24.9067 52.8777 24.6675 52.8777ZM52.3616 46.2383C52.1622 46.2383 51.9429 46.1984 51.7036 46.1187C51.5043 45.999 51.3248 45.8395 51.1653 45.6402C49.2512 43.088 46.8985 41.1142 44.1072 39.7185C41.3557 38.3229 38.385 37.625 35.1948 37.625C32.0446 37.625 29.0738 38.3229 26.2825 39.7185C23.531 41.1142 21.1982 43.088 19.2841 45.6402C19.005 45.9592 18.6462 46.1585 18.2075 46.2383C17.8087 46.2782 17.4499 46.1785 17.1309 45.9392C16.8118 45.6601 16.6125 45.3211 16.5327 44.9224C16.4928 44.4838 16.5926 44.1049 16.8318 43.7859C17.8686 42.3902 19.0649 41.1341 20.4207 40.0176C21.7764 38.8612 23.232 37.8842 24.7871 37.0867C26.422 36.2493 28.0969 35.6312 29.8115 35.2325C31.5661 34.7938 33.3605 34.5745 35.1948 34.5745C37.069 34.5745 38.8634 34.7938 40.5781 35.2325C42.3327 35.6312 44.0274 36.2493 45.6623 37.0867C47.2176 37.8842 48.673 38.8612 50.0288 40.0176C51.3846 41.1341 52.5809 42.3902 53.6177 43.7859C53.857 44.1049 53.9367 44.4838 53.857 44.9224C53.8171 45.3211 53.6376 45.6601 53.3186 45.9392C53.1591 46.0189 52.9996 46.0987 52.84 46.1785C52.6806 46.2184 52.5211 46.2383 52.3616 46.2383Z" fill="#FFB3A9"/>
</svg>
