<svg width="70" height="70" viewBox="0 0 70 70" fill="none" xmlns="http://www.w3.org/2000/svg">
<path d="M64.0698 50.7261H39.6057C39.167 50.7261 38.7882 50.5865 38.4692 50.3074C38.1901 49.9884 38.0505 49.6096 38.0505 49.1709C38.0505 48.7721 38.1901 48.4332 38.4692 48.154C38.7882 47.8351 39.167 47.6756 39.6057 47.6756H64.0698C64.5084 47.6756 64.8674 47.8351 65.1465 48.154C65.4655 48.4332 65.625 48.7721 65.625 49.1709C65.625 49.6096 65.4655 49.9884 65.1465 50.3074C64.8674 50.5865 64.5084 50.7261 64.0698 50.7261ZM61.0193 35.4136H35C32.4479 35.4136 30.2747 34.5163 28.4802 32.7219C26.6858 30.9274 25.7885 28.7542 25.7885 26.2022C25.7885 23.69 26.6858 21.5366 28.4802 19.7422C30.2747 17.9478 32.4479 17.0505 35 17.0505C37.2729 17.0505 39.2668 17.8082 40.9814 19.3235C42.736 20.7989 43.7728 22.6532 44.0918 24.8863C44.1715 25.3249 44.3709 25.6837 44.6899 25.9629C45.0489 26.2022 45.4277 26.2819 45.8264 26.2022C46.265 26.1623 46.604 25.9828 46.8432 25.6638C47.0825 25.305 47.1822 24.9061 47.1423 24.4675C46.943 23.032 46.4844 21.6762 45.7666 20.4001C45.0489 19.0842 44.1516 17.9478 43.075 16.9907C41.9585 16.0337 40.7023 15.296 39.3067 14.7776C37.911 14.2592 36.4754 14 35 14C33.3252 14 31.7301 14.319 30.2148 14.957C28.7394 15.5951 27.4434 16.4723 26.3269 17.5889C25.2103 18.6655 24.3331 19.9615 23.6951 21.4768C23.0571 22.9523 22.738 24.5273 22.738 26.2022C22.738 28.0364 23.1168 29.7511 23.8745 31.3462C24.6321 32.9413 25.649 34.2971 26.9251 35.4136H12.0313C10.7552 35.4136 9.65861 34.9749 8.74145 34.0977C7.86418 33.1805 7.42554 32.0839 7.42554 30.8078C7.42554 29.5318 7.86418 28.4551 8.74145 27.5779C9.65861 26.6607 10.7552 26.2022 12.0313 26.2022C12.8687 26.2022 13.6263 26.4215 14.3042 26.8601C15.0219 27.2588 15.6002 27.8172 16.0389 28.5349C16.2382 28.8938 16.5373 29.1331 16.936 29.2527C17.3348 29.3324 17.7336 29.2726 18.1323 29.0732C18.4912 28.8738 18.7105 28.5747 18.7903 28.176C18.9099 27.7374 18.87 27.3386 18.6707 26.9797C17.9927 25.8233 17.0557 24.9061 15.8594 24.2283C14.6631 23.5105 13.3871 23.1516 12.0313 23.1516C9.9178 23.1516 8.10344 23.9092 6.58813 25.4246C5.11271 26.9 4.375 28.6944 4.375 30.8078C4.375 32.9213 5.11271 34.7357 6.58813 36.2509C8.10344 37.7264 9.9178 38.4641 12.0313 38.4641H61.0193C61.4579 38.4641 61.8168 38.3245 62.096 38.0454C62.415 37.7264 62.5744 37.3675 62.5744 36.9687C62.5744 36.5301 62.415 36.1712 62.096 35.8921C61.8168 35.5731 61.4579 35.4136 61.0193 35.4136ZM18.1323 56.8272C16.0189 56.8272 14.2045 56.0895 12.6892 54.614C11.2138 53.0987 10.4761 51.2843 10.4761 49.1709C10.4761 47.0575 11.2138 45.263 12.6892 43.7876C14.2045 42.2723 16.0189 41.5147 18.1323 41.5147H51.8677C52.2665 41.5147 52.6054 41.6741 52.8845 41.9931C53.2035 42.2723 53.363 42.6312 53.363 43.0698C53.363 43.5085 53.2035 43.8872 52.8845 44.2063C52.6054 44.4854 52.2665 44.625 51.8677 44.625H18.1323C16.8962 44.625 15.8195 45.0835 14.9023 46.0007C14.025 46.878 13.5864 47.9347 13.5864 49.1709C13.5864 50.4469 14.025 51.5435 14.9023 52.4607C15.8195 53.3379 16.8962 53.7766 18.1323 53.7766C18.9698 53.7766 19.7473 53.5773 20.465 53.1784C21.1829 52.7797 21.7411 52.2214 22.1399 51.5037C22.3393 51.1448 22.6384 50.9055 23.0371 50.7859C23.4757 50.6662 23.8745 50.7061 24.2334 50.9055C24.5922 51.1448 24.8316 51.4638 24.9512 51.8625C25.0708 52.2613 25.011 52.6401 24.7717 52.9991C24.0938 54.1953 23.1567 55.1324 21.9604 55.8103C20.804 56.4882 19.528 56.8272 18.1323 56.8272Z" fill="#FFB3A9"/>
</svg>
