<svg width="55" height="50" viewBox="0 0 55 50" fill="none" xmlns="http://www.w3.org/2000/svg">
<path d="M2 32H53" stroke="#455D58" stroke-width="3" stroke-linecap="round"/>
<path d="M13 39.9706H41.6765" stroke="#455D58" stroke-width="3" stroke-linecap="round"/>
<path d="M22 48H32.3235" stroke="#455D58" stroke-width="3" stroke-linecap="round"/>
<path d="M24.5639 21.5298L21.4052 16.3586C20.6369 15.1009 19.0228 14.6579 17.7202 15.3474C16.735 15.8688 15.8338 14.5311 16.6871 13.8139L18.6937 12.1276C20.0503 10.9876 22.0942 11.2655 23.0971 12.7264L26.29 17.3775C27.1081 18.5693 28.6599 19.0081 29.981 18.4213L35.2512 16.0806C36.7507 15.4146 38.5072 16.0769 39.1937 17.5671L40.8244 21.1069C41.3136 22.1688 39.8949 23.0637 39.1473 22.1647L38.2511 21.0871C37.4292 20.0987 36.0688 19.7438 34.8688 20.2048L28.1998 22.7665C26.8482 23.2856 25.3186 22.7654 24.5639 21.5298Z" fill="#455D58"/>
<path d="M8.77979 30.5857L10.1466 29.9678L10.1466 29.9678L8.77979 30.5857ZM7.62035 31.6488C7.97867 32.3957 8.87465 32.7107 9.62157 32.3524C10.3685 31.9941 10.6835 31.0981 10.3252 30.3512L7.62035 31.6488ZM44.6748 30.3512C44.3165 31.0981 44.6315 31.9941 45.3784 32.3524C46.1254 32.7107 47.0213 32.3957 47.3797 31.6488L44.6748 30.3512ZM8.5 22.3C8.5 11.9309 16.9927 3.5 27.5 3.5V0.5C15.3636 0.5 5.5 10.2464 5.5 22.3H8.5ZM27.5 3.5C38.0073 3.5 46.5 11.9309 46.5 22.3H49.5C49.5 10.2464 39.6364 0.5 27.5 0.5V3.5ZM10.1466 29.9678C9.08877 27.6278 8.5 25.0338 8.5 22.3H5.5C5.5 25.4689 6.18331 28.4835 7.41297 31.2036L10.1466 29.9678ZM10.3252 30.3512C10.2643 30.2242 10.2047 30.0964 10.1466 29.9678L7.41297 31.2036C7.48046 31.3529 7.5496 31.5013 7.62035 31.6488L10.3252 30.3512ZM46.5 22.3C46.5 25.1837 45.8449 27.9122 44.6748 30.3512L47.3797 31.6488C48.7395 28.8141 49.5 25.6431 49.5 22.3H46.5Z" fill="#455D58"/>
</svg>
