<svg width="252" height="52" viewBox="0 0 252 52" fill="none" xmlns="http://www.w3.org/2000/svg">
<path d="M64.22 24.415L71.5 7.685C71.6167 7.45167 71.8033 7.18333 72.06 6.88C72.34 6.55333 72.5733 6.39 72.76 6.39C73.1567 6.39 73.4017 6.46 73.495 6.6L80.495 23.925C80.7283 24.4383 80.9033 24.8933 81.02 25.29C81.1367 25.6633 81.2767 26.0367 81.44 26.41C81.65 26.8767 81.9417 27.215 82.315 27.425C82.7117 27.635 83.085 27.7633 83.435 27.81C83.8083 27.8567 84.0417 27.88 84.135 27.88C84.2283 28.0433 84.275 28.2767 84.275 28.58C84.2983 28.8833 84.275 29.07 84.205 29.14C83.5283 29.0933 82.7817 29.035 81.965 28.965C81.1483 28.895 80.3667 28.86 79.62 28.86C79.1067 28.86 78.5233 28.8833 77.87 28.93C77.2167 28.9533 76.5867 28.9883 75.98 29.035C75.3967 29.0817 74.895 29.1167 74.475 29.14C74.4283 29.07 74.3933 28.9417 74.37 28.755C74.3467 28.545 74.3467 28.3467 74.37 28.16C74.3933 27.9733 74.4283 27.88 74.475 27.88C74.7783 27.88 75.1283 27.8333 75.525 27.74C75.945 27.6233 76.2717 27.46 76.505 27.25C76.6917 27.0867 76.785 26.9 76.785 26.69C76.785 26.62 76.715 26.41 76.575 26.06C76.435 25.6867 76.26 25.2433 76.05 24.73C75.8633 24.2167 75.665 23.715 75.455 23.225C75.2683 22.7117 75.105 22.2917 74.965 21.965C74.825 21.6383 74.755 21.475 74.755 21.475C74.755 21.475 74.72 21.4517 74.65 21.405C74.6033 21.3583 74.5567 21.335 74.51 21.335C74.02 21.3117 73.5417 21.3 73.075 21.3C72.6317 21.3 72.2233 21.3 71.85 21.3C71.7333 21.3 71.6167 21.3 71.5 21.3C71.4067 21.3 71.3133 21.3 71.22 21.3C70.52 21.3 69.9017 21.3 69.365 21.3C68.8517 21.3 68.2917 21.3117 67.685 21.335C67.5917 21.335 67.51 21.3933 67.44 21.51C67.44 21.51 67.3583 21.685 67.195 22.035C67.055 22.385 66.8917 22.7817 66.705 23.225C66.5183 23.6683 66.355 24.0533 66.215 24.38C66.0517 24.8 65.8767 25.2667 65.69 25.78C65.5267 26.2933 65.445 26.6083 65.445 26.725C65.445 27.005 65.6433 27.2383 66.04 27.425C66.4367 27.5883 66.845 27.705 67.265 27.775C67.7083 27.845 67.9767 27.88 68.07 27.88C68.1867 27.9967 68.2333 28.2183 68.21 28.545C68.1867 28.8717 68.1517 29.07 68.105 29.14C67.5217 29.07 66.95 29.0117 66.39 28.965C65.83 28.895 65.1767 28.86 64.43 28.86C63.6367 28.86 62.96 28.895 62.4 28.965C61.8633 29.0117 61.2917 29.07 60.685 29.14C60.615 29.07 60.5683 28.895 60.545 28.615C60.5217 28.335 60.545 28.1017 60.615 27.915C60.755 27.915 60.9883 27.8683 61.315 27.775C61.665 27.6583 62.0033 27.5183 62.33 27.355C62.68 27.1917 62.9133 27.0167 63.03 26.83C63.3333 26.3633 63.555 25.9667 63.695 25.64C63.835 25.29 64.01 24.8817 64.22 24.415ZM71.08 12.725L68.175 19.445C68.175 19.445 68.175 19.4683 68.175 19.515C68.1983 19.5383 68.2217 19.55 68.245 19.55C68.595 19.5733 69.0617 19.5967 69.645 19.62C70.2283 19.6433 70.7067 19.655 71.08 19.655C71.6167 19.655 72.0717 19.655 72.445 19.655C72.8417 19.6317 73.2967 19.6083 73.81 19.585C73.8567 19.585 73.88 19.5617 73.88 19.515C73.9033 19.4683 73.915 19.445 73.915 19.445L71.08 12.725ZM92.6463 24.17C92.6463 24.17 92.6463 24.1933 92.6463 24.24C92.6463 24.3567 92.6463 24.59 92.6463 24.94C92.6463 25.2667 92.658 25.6167 92.6813 25.99C92.728 26.3633 92.798 26.655 92.8913 26.865C93.008 27.0983 93.2996 27.2733 93.7663 27.39C94.233 27.5067 94.688 27.565 95.1313 27.565H97.3713C98.0246 27.565 98.6196 27.4717 99.1563 27.285C99.7163 27.0983 100.183 26.8183 100.556 26.445C100.93 26.0717 101.256 25.6283 101.536 25.115C101.816 24.6017 102.108 23.96 102.411 23.19C102.458 23.05 102.61 22.98 102.866 22.98C103.053 22.98 103.263 23.0033 103.496 23.05C103.73 23.0967 103.87 23.1433 103.916 23.19C103.706 23.7967 103.473 24.4617 103.216 25.185C102.96 25.9083 102.726 26.6083 102.516 27.285C102.306 27.9617 102.155 28.5567 102.061 29.07H90.2663C89.053 29.07 87.9913 29.07 87.0813 29.07C86.1713 29.0933 85.5996 29.105 85.3663 29.105C85.2963 28.9883 85.2496 28.7783 85.2263 28.475C85.2263 28.1717 85.273 27.9617 85.3663 27.845C85.5296 27.8217 85.7746 27.7983 86.1013 27.775C86.428 27.7283 86.743 27.67 87.0463 27.6C87.3496 27.5067 87.5246 27.39 87.5713 27.25C87.7113 26.9 87.793 26.4567 87.8163 25.92C87.8396 25.3833 87.8513 24.7533 87.8513 24.03V11.465C87.8513 10.7183 87.8396 10.0883 87.8163 9.575C87.793 9.03833 87.7113 8.595 87.5713 8.245C87.5246 8.08167 87.3496 7.965 87.0463 7.895C86.743 7.80166 86.428 7.74333 86.1013 7.72C85.7746 7.67333 85.5296 7.65 85.3663 7.65C85.273 7.53333 85.2263 7.32333 85.2263 7.02C85.2496 6.69333 85.2963 6.48333 85.3663 6.39C86.043 6.46 86.848 6.51833 87.7813 6.565C88.7146 6.58833 89.543 6.6 90.2663 6.6C90.9896 6.6 91.8063 6.58833 92.7163 6.565C93.6496 6.51833 94.443 6.46 95.0963 6.39C95.1663 6.48333 95.2013 6.69333 95.2013 7.02C95.2246 7.32333 95.1896 7.53333 95.0963 7.65C94.9563 7.65 94.7113 7.67333 94.3613 7.72C94.0346 7.74333 93.7196 7.80166 93.4163 7.895C93.1363 7.965 92.9613 8.08167 92.8913 8.245C92.7746 8.54833 92.7046 8.93333 92.6813 9.4C92.658 9.86667 92.6463 10.4033 92.6463 11.01C92.6463 11.08 92.6463 11.1617 92.6463 11.255C92.6463 11.325 92.6463 11.395 92.6463 11.465V24.17ZM115.306 6.425C116.38 6.425 117.441 6.6 118.491 6.95C119.541 7.3 120.416 7.87167 121.116 8.665C121.84 9.45833 122.201 10.52 122.201 11.85C122.201 12.5267 122.05 13.1333 121.746 13.67C121.466 14.2067 121.116 14.6733 120.696 15.07C120.276 15.4667 119.856 15.7817 119.436 16.015C119.04 16.2483 118.725 16.4117 118.491 16.505C118.351 16.5517 118.281 16.5983 118.281 16.645C118.281 16.6683 118.293 16.68 118.316 16.68C118.736 16.7267 119.25 16.89 119.856 17.17C120.486 17.4267 121.105 17.8 121.711 18.29C122.318 18.78 122.82 19.375 123.216 20.075C123.636 20.7517 123.846 21.5333 123.846 22.42C123.846 23.54 123.508 24.59 122.831 25.57C122.178 26.55 121.315 27.355 120.241 27.985C119.238 28.5683 118.118 28.9067 116.881 29C115.645 29.0933 114.396 29.1283 113.136 29.105C112.95 29.105 112.693 29.105 112.366 29.105C112.04 29.105 111.678 29.105 111.281 29.105C110.581 29.105 109.811 29.105 108.971 29.105C108.155 29.105 107.396 29.105 106.696 29.105C105.996 29.105 105.483 29.105 105.156 29.105C105.086 28.9883 105.04 28.7783 105.016 28.475C105.016 28.1717 105.063 27.9617 105.156 27.845C105.32 27.8217 105.565 27.7983 105.891 27.775C106.218 27.7283 106.533 27.67 106.836 27.6C107.14 27.5067 107.315 27.39 107.361 27.25C107.501 26.9 107.583 26.4567 107.606 25.92C107.63 25.3833 107.641 24.7533 107.641 24.03V11.465C107.641 10.7183 107.63 10.0883 107.606 9.575C107.583 9.03833 107.501 8.595 107.361 8.245C107.315 8.08167 107.14 7.965 106.836 7.895C106.533 7.825 106.218 7.77833 105.891 7.755C105.565 7.73167 105.32 7.72 105.156 7.72C105.063 7.60333 105.016 7.38167 105.016 7.055C105.04 6.72833 105.086 6.51833 105.156 6.425C105.926 6.47167 106.755 6.50667 107.641 6.53C108.528 6.53 109.333 6.53 110.056 6.53C110.78 6.53 111.585 6.51833 112.471 6.495C113.358 6.44833 114.303 6.425 115.306 6.425ZM112.436 17.66V25.29C112.436 25.29 112.436 25.3133 112.436 25.36C112.436 25.5233 112.436 25.8383 112.436 26.305C112.46 26.7483 112.541 27.0633 112.681 27.25C112.821 27.4367 113.101 27.5533 113.521 27.6C113.965 27.6467 114.408 27.67 114.851 27.67C115.388 27.67 115.925 27.53 116.461 27.25C117.021 26.9467 117.488 26.4567 117.861 25.78C118.258 25.08 118.456 24.1467 118.456 22.98C118.456 22.1167 118.328 21.2883 118.071 20.495C117.815 19.6783 117.371 19.0017 116.741 18.465C116.135 17.9283 115.283 17.66 114.186 17.66H112.436ZM112.436 16.33H114.186C115.05 16.33 115.75 15.9917 116.286 15.315C116.846 14.615 117.126 13.6233 117.126 12.34C117.126 10.7067 116.87 9.55167 116.356 8.875C115.866 8.175 115.178 7.825 114.291 7.825C113.918 7.825 113.556 7.84833 113.206 7.895C112.88 7.91833 112.67 8.02333 112.576 8.21C112.506 8.39667 112.46 8.63 112.436 8.91C112.436 9.19 112.436 9.51667 112.436 9.89C112.436 9.96 112.436 10.03 112.436 10.1C112.436 10.17 112.436 10.24 112.436 10.31V16.33ZM127.658 24.415L134.938 7.685C135.054 7.45167 135.241 7.18333 135.498 6.88C135.778 6.55333 136.011 6.39 136.198 6.39C136.594 6.39 136.839 6.46 136.933 6.6L143.933 23.925C144.166 24.4383 144.341 24.8933 144.458 25.29C144.574 25.6633 144.714 26.0367 144.878 26.41C145.088 26.8767 145.379 27.215 145.753 27.425C146.149 27.635 146.523 27.7633 146.873 27.81C147.246 27.8567 147.479 27.88 147.573 27.88C147.666 28.0433 147.713 28.2767 147.713 28.58C147.736 28.8833 147.713 29.07 147.643 29.14C146.966 29.0933 146.219 29.035 145.403 28.965C144.586 28.895 143.804 28.86 143.058 28.86C142.544 28.86 141.961 28.8833 141.308 28.93C140.654 28.9533 140.024 28.9883 139.418 29.035C138.834 29.0817 138.333 29.1167 137.913 29.14C137.866 29.07 137.831 28.9417 137.808 28.755C137.784 28.545 137.784 28.3467 137.808 28.16C137.831 27.9733 137.866 27.88 137.913 27.88C138.216 27.88 138.566 27.8333 138.963 27.74C139.383 27.6233 139.709 27.46 139.943 27.25C140.129 27.0867 140.223 26.9 140.223 26.69C140.223 26.62 140.153 26.41 140.013 26.06C139.873 25.6867 139.698 25.2433 139.488 24.73C139.301 24.2167 139.103 23.715 138.893 23.225C138.706 22.7117 138.543 22.2917 138.403 21.965C138.263 21.6383 138.193 21.475 138.193 21.475C138.193 21.475 138.158 21.4517 138.088 21.405C138.041 21.3583 137.994 21.335 137.948 21.335C137.458 21.3117 136.979 21.3 136.513 21.3C136.069 21.3 135.661 21.3 135.288 21.3C135.171 21.3 135.054 21.3 134.938 21.3C134.844 21.3 134.751 21.3 134.658 21.3C133.958 21.3 133.339 21.3 132.803 21.3C132.289 21.3 131.729 21.3117 131.123 21.335C131.029 21.335 130.948 21.3933 130.878 21.51C130.878 21.51 130.796 21.685 130.633 22.035C130.493 22.385 130.329 22.7817 130.143 23.225C129.956 23.6683 129.793 24.0533 129.653 24.38C129.489 24.8 129.314 25.2667 129.128 25.78C128.964 26.2933 128.883 26.6083 128.883 26.725C128.883 27.005 129.081 27.2383 129.478 27.425C129.874 27.5883 130.283 27.705 130.703 27.775C131.146 27.845 131.414 27.88 131.508 27.88C131.624 27.9967 131.671 28.2183 131.648 28.545C131.624 28.8717 131.589 29.07 131.543 29.14C130.959 29.07 130.388 29.0117 129.828 28.965C129.268 28.895 128.614 28.86 127.868 28.86C127.074 28.86 126.398 28.895 125.838 28.965C125.301 29.0117 124.729 29.07 124.122 29.14C124.052 29.07 124.006 28.895 123.982 28.615C123.959 28.335 123.982 28.1017 124.052 27.915C124.192 27.915 124.426 27.8683 124.753 27.775C125.103 27.6583 125.441 27.5183 125.768 27.355C126.118 27.1917 126.351 27.0167 126.468 26.83C126.771 26.3633 126.993 25.9667 127.133 25.64C127.273 25.29 127.448 24.8817 127.658 24.415ZM134.518 12.725L131.613 19.445C131.613 19.445 131.613 19.4683 131.613 19.515C131.636 19.5383 131.659 19.55 131.683 19.55C132.033 19.5733 132.499 19.5967 133.083 19.62C133.666 19.6433 134.144 19.655 134.518 19.655C135.054 19.655 135.509 19.655 135.883 19.655C136.279 19.6317 136.734 19.6083 137.248 19.585C137.294 19.585 137.318 19.5617 137.318 19.515C137.341 19.4683 137.353 19.445 137.353 19.445L134.518 12.725ZM161.91 6.53C162.726 6.53 163.345 6.48333 163.765 6.39C164.208 6.27333 164.546 6.16833 164.78 6.075C165.013 5.95833 165.235 5.9 165.445 5.9C165.585 5.9 165.666 5.91167 165.69 5.935C165.736 5.935 165.795 5.95833 165.865 6.005L166.775 12.27C166.728 12.3167 166.588 12.375 166.355 12.445C166.145 12.4917 165.958 12.515 165.795 12.515C165.585 12.515 165.468 12.4567 165.445 12.34C165.328 11.5933 165.095 10.8933 164.745 10.24C164.395 9.58667 163.963 9.06167 163.45 8.665C162.936 8.245 162.388 8.035 161.805 8.035H158.62V24.03C158.62 24.7533 158.631 25.3833 158.655 25.92C158.678 26.4567 158.76 26.9 158.9 27.25C158.97 27.39 159.145 27.5067 159.425 27.6C159.728 27.6933 160.043 27.7633 160.37 27.81C160.696 27.8333 160.93 27.8567 161.07 27.88C161.163 27.9967 161.198 28.2067 161.175 28.51C161.175 28.8133 161.14 29.0233 161.07 29.14C160.416 29.07 159.623 29.0117 158.69 28.965C157.756 28.9183 156.928 28.895 156.205 28.895C155.481 28.895 154.665 28.9183 153.755 28.965C152.845 29.0117 152.051 29.07 151.375 29.14C151.305 29.0233 151.258 28.8133 151.235 28.51C151.235 28.2067 151.281 27.9967 151.375 27.88C151.538 27.8567 151.771 27.8333 152.075 27.81C152.401 27.7633 152.716 27.6933 153.02 27.6C153.323 27.5067 153.498 27.39 153.545 27.25C153.685 26.9 153.766 26.4567 153.79 25.92C153.813 25.3833 153.825 24.7533 153.825 24.03V8.035H150.64C150.056 8.035 149.508 8.245 148.995 8.665C148.481 9.06167 148.05 9.58667 147.7 10.24C147.35 10.8933 147.116 11.5933 147 12.34C146.976 12.4567 146.86 12.515 146.65 12.515C146.486 12.515 146.288 12.4917 146.055 12.445C145.845 12.375 145.716 12.3167 145.67 12.27L146.58 6.005C146.65 5.95833 146.696 5.935 146.72 5.935C146.766 5.91167 146.86 5.9 147 5.9C147.21 5.9 147.431 5.95833 147.665 6.075C147.898 6.16833 148.225 6.27333 148.645 6.39C149.088 6.48333 149.718 6.53 150.535 6.53H161.91ZM178.54 6.425C179.963 6.425 181.235 6.65833 182.355 7.125C183.475 7.59167 184.361 8.29167 185.015 9.225C185.668 10.135 185.995 11.2783 185.995 12.655C185.995 13.355 185.831 14.02 185.505 14.65C185.201 15.2567 184.805 15.8167 184.315 16.33C183.825 16.82 183.311 17.2283 182.775 17.555C182.261 17.8583 181.795 18.0683 181.375 18.185C182.215 19.305 183.008 20.355 183.755 21.335C184.501 22.2917 185.108 23.0733 185.575 23.68C186.065 24.2633 186.31 24.555 186.31 24.555C187.15 25.6283 187.99 26.3983 188.83 26.865C189.67 27.3317 190.381 27.6233 190.965 27.74C191.548 27.8333 191.886 27.88 191.98 27.88C192.073 27.9967 192.096 28.23 192.05 28.58C192.026 28.9067 192.003 29.0933 191.98 29.14C191.49 29.1633 190.79 29.1867 189.88 29.21C188.993 29.2567 188.2 29.28 187.5 29.28C186.193 29.28 185.096 29 184.21 28.44C183.346 27.88 182.705 27.3083 182.285 26.725L176.755 19.305C176.755 19.305 176.685 19.2233 176.545 19.06C176.405 18.8733 176.265 18.78 176.125 18.78H175.635V24.03C175.635 24.1 175.635 24.1817 175.635 24.275C175.635 24.345 175.635 24.415 175.635 24.485C175.635 25.0917 175.646 25.6283 175.67 26.095C175.693 26.5617 175.763 26.9467 175.88 27.25C175.95 27.39 176.125 27.5067 176.405 27.6C176.708 27.6933 177.023 27.7633 177.35 27.81C177.7 27.8333 177.945 27.8567 178.085 27.88C178.178 27.9967 178.213 28.2067 178.19 28.51C178.19 28.8133 178.155 29.0233 178.085 29.14C177.431 29.07 176.626 29.0117 175.67 28.965C174.736 28.9183 173.908 28.895 173.185 28.895C172.461 28.895 171.645 28.9183 170.735 28.965C169.825 29.0117 169.031 29.07 168.355 29.14C168.285 29.0233 168.238 28.8133 168.215 28.51C168.215 28.2067 168.261 27.9967 168.355 27.88C168.518 27.8567 168.763 27.8333 169.09 27.81C169.416 27.7633 169.731 27.6933 170.035 27.6C170.338 27.5067 170.513 27.39 170.56 27.25C170.7 26.9 170.781 26.4567 170.805 25.92C170.828 25.3833 170.84 24.7533 170.84 24.03V11.465C170.84 10.7183 170.828 10.0883 170.805 9.575C170.781 9.03833 170.7 8.595 170.56 8.245C170.513 8.08167 170.338 7.965 170.035 7.895C169.731 7.825 169.416 7.77833 169.09 7.755C168.763 7.73167 168.518 7.72 168.355 7.72C168.261 7.60333 168.215 7.38167 168.215 7.055C168.238 6.72833 168.285 6.51833 168.355 6.425C169.125 6.47167 169.953 6.50667 170.84 6.53C171.726 6.53 172.531 6.53 173.255 6.53C173.978 6.53 174.783 6.51833 175.67 6.495C176.58 6.44833 177.536 6.425 178.54 6.425ZM180.92 13.005C180.92 12.095 180.826 11.255 180.64 10.485C180.453 9.69167 180.115 9.05 179.625 8.56C179.135 8.07 178.423 7.825 177.49 7.825C177.116 7.825 176.755 7.84833 176.405 7.895C176.078 7.91833 175.868 8.02333 175.775 8.21C175.705 8.39667 175.658 8.63 175.635 8.91C175.635 9.19 175.635 9.51667 175.635 9.89C175.635 9.96 175.635 10.03 175.635 10.1C175.635 10.17 175.635 10.24 175.635 10.31V17.45H177.175C177.828 17.45 178.435 17.2633 178.995 16.89C179.578 16.5167 180.045 15.9917 180.395 15.315C180.745 14.6383 180.92 13.8683 180.92 13.005ZM202.877 6.215C204.393 6.215 205.84 6.51833 207.217 7.125C208.617 7.70833 209.853 8.53667 210.927 9.61C212.023 10.66 212.887 11.885 213.517 13.285C214.17 14.685 214.497 16.19 214.497 17.8C214.497 19.41 214.17 20.915 213.517 22.315C212.887 23.6917 212.023 24.9167 210.927 25.99C209.853 27.04 208.617 27.8683 207.217 28.475C205.84 29.0583 204.393 29.35 202.877 29.35C201.383 29.35 199.937 29.0583 198.537 28.475C197.137 27.8683 195.888 27.04 194.792 25.99C193.718 24.9167 192.855 23.6917 192.202 22.315C191.572 20.915 191.257 19.41 191.257 17.8C191.257 16.19 191.572 14.685 192.202 13.285C192.855 11.885 193.718 10.66 194.792 9.61C195.888 8.53667 197.137 7.70833 198.537 7.125C199.937 6.51833 201.383 6.215 202.877 6.215ZM202.072 7.685C201.068 7.685 200.217 7.95333 199.517 8.49C198.84 9.02667 198.292 9.73833 197.872 10.625C197.475 11.4883 197.183 12.445 196.997 13.495C196.81 14.545 196.717 15.5833 196.717 16.61C196.717 17.9167 196.833 19.235 197.067 20.565C197.323 21.8717 197.72 23.085 198.257 24.205C198.793 25.3017 199.493 26.1883 200.357 26.865C201.243 27.5417 202.328 27.88 203.612 27.88C204.638 27.88 205.49 27.6233 206.167 27.11C206.867 26.5733 207.427 25.8733 207.847 25.01C208.267 24.1467 208.57 23.19 208.757 22.14C208.943 21.09 209.037 20.0517 209.037 19.025C209.037 17.7183 208.908 16.4 208.652 15.07C208.418 13.74 208.022 12.515 207.462 11.395C206.925 10.275 206.213 9.37667 205.327 8.7C204.44 8.02333 203.355 7.685 202.072 7.685ZM225.003 6.11C226.03 6.11 226.975 6.215 227.838 6.425C228.725 6.61167 229.693 6.82167 230.743 7.055C230.836 7.965 230.906 8.875 230.953 9.785C231.023 10.695 231.081 11.675 231.128 12.725C231.035 12.865 230.906 12.935 230.743 12.935C230.743 12.935 230.731 12.935 230.708 12.935C230.615 12.935 230.428 12.935 230.148 12.935C229.891 12.9117 229.751 12.83 229.728 12.69C229.658 12.2 229.506 11.6633 229.273 11.08C229.04 10.4967 228.725 9.93667 228.328 9.4C227.931 8.86333 227.465 8.42 226.928 8.07C226.415 7.72 225.831 7.545 225.178 7.545C224.735 7.545 224.291 7.63833 223.848 7.825C223.405 7.98833 223.031 8.29166 222.728 8.735C222.425 9.155 222.273 9.75 222.273 10.52C222.273 11.22 222.541 11.9083 223.078 12.585C223.615 13.2383 224.256 13.8567 225.003 14.44C225.773 15 226.508 15.5133 227.208 15.98C227.955 16.47 228.713 17.0067 229.483 17.59C230.276 18.15 230.93 18.8617 231.443 19.725C231.98 20.565 232.248 21.6617 232.248 23.015C232.248 24.2517 231.886 25.3483 231.163 26.305C230.44 27.2617 229.506 28.0083 228.363 28.545C227.243 29.0817 226.053 29.35 224.793 29.35C223.79 29.35 222.705 29.2567 221.538 29.07C220.395 28.8833 219.31 28.6733 218.283 28.44C218.166 27.9267 218.05 27.2733 217.933 26.48C217.816 25.6867 217.711 24.9283 217.618 24.205C217.548 23.4583 217.501 22.9333 217.478 22.63C217.548 22.5133 217.7 22.4083 217.933 22.315C218.19 22.2217 218.365 22.175 218.458 22.175C218.738 22.175 218.89 22.2567 218.913 22.42C218.983 22.8867 219.17 23.435 219.473 24.065C219.776 24.6717 220.161 25.2783 220.628 25.885C221.118 26.4683 221.678 26.9583 222.308 27.355C222.961 27.7283 223.673 27.915 224.443 27.915C225.33 27.915 226.1 27.67 226.753 27.18C227.43 26.6667 227.768 25.8033 227.768 24.59C227.768 23.9833 227.581 23.4117 227.208 22.875C226.858 22.315 226.415 21.8017 225.878 21.335C225.341 20.8683 224.781 20.4367 224.198 20.04C223.615 19.6433 223.113 19.305 222.693 19.025C221.876 18.465 221.083 17.8933 220.313 17.31C219.543 16.7267 218.913 16.0383 218.423 15.245C217.956 14.4517 217.723 13.46 217.723 12.27C217.723 11.08 218.085 10.03 218.808 9.12C219.531 8.18667 220.453 7.45167 221.573 6.915C222.693 6.37833 223.836 6.11 225.003 6.11ZM242.777 6.11C243.803 6.11 244.748 6.215 245.612 6.425C246.498 6.61167 247.467 6.82167 248.517 7.055C248.61 7.965 248.68 8.875 248.727 9.785C248.797 10.695 248.855 11.675 248.902 12.725C248.808 12.865 248.68 12.935 248.517 12.935C248.517 12.935 248.505 12.935 248.482 12.935C248.388 12.935 248.202 12.935 247.922 12.935C247.665 12.9117 247.525 12.83 247.502 12.69C247.432 12.2 247.28 11.6633 247.047 11.08C246.813 10.4967 246.498 9.93667 246.102 9.4C245.705 8.86333 245.238 8.42 244.702 8.07C244.188 7.72 243.605 7.545 242.952 7.545C242.508 7.545 242.065 7.63833 241.622 7.825C241.178 7.98833 240.805 8.29166 240.502 8.735C240.198 9.155 240.047 9.75 240.047 10.52C240.047 11.22 240.315 11.9083 240.852 12.585C241.388 13.2383 242.03 13.8567 242.777 14.44C243.547 15 244.282 15.5133 244.982 15.98C245.728 16.47 246.487 17.0067 247.257 17.59C248.05 18.15 248.703 18.8617 249.217 19.725C249.753 20.565 250.022 21.6617 250.022 23.015C250.022 24.2517 249.66 25.3483 248.937 26.305C248.213 27.2617 247.28 28.0083 246.137 28.545C245.017 29.0817 243.827 29.35 242.567 29.35C241.563 29.35 240.478 29.2567 239.312 29.07C238.168 28.8833 237.083 28.6733 236.057 28.44C235.94 27.9267 235.823 27.2733 235.707 26.48C235.59 25.6867 235.485 24.9283 235.392 24.205C235.322 23.4583 235.275 22.9333 235.252 22.63C235.322 22.5133 235.473 22.4083 235.707 22.315C235.963 22.2217 236.138 22.175 236.232 22.175C236.512 22.175 236.663 22.2567 236.687 22.42C236.757 22.8867 236.943 23.435 237.247 24.065C237.55 24.6717 237.935 25.2783 238.402 25.885C238.892 26.4683 239.452 26.9583 240.082 27.355C240.735 27.7283 241.447 27.915 242.217 27.915C243.103 27.915 243.873 27.67 244.527 27.18C245.203 26.6667 245.542 25.8033 245.542 24.59C245.542 23.9833 245.355 23.4117 244.982 22.875C244.632 22.315 244.188 21.8017 243.652 21.335C243.115 20.8683 242.555 20.4367 241.972 20.04C241.388 19.6433 240.887 19.305 240.467 19.025C239.65 18.465 238.857 17.8933 238.087 17.31C237.317 16.7267 236.687 16.0383 236.197 15.245C235.73 14.4517 235.497 13.46 235.497 12.27C235.497 11.08 235.858 10.03 236.582 9.12C237.305 8.18667 238.227 7.45167 239.347 6.915C240.467 6.37833 241.61 6.11 242.777 6.11Z" fill="white"/>
<path d="M65.78 44C66.6867 44 67.4 44.2167 67.92 44.65C68.44 45.0833 68.7 45.68 68.7 46.44C68.7 47.2 68.44 47.7967 67.92 48.23C67.4 48.6633 66.6867 48.88 65.78 48.88H64.05V51H63.05V44H65.78ZM65.75 48.01C66.3833 48.01 66.8667 47.8767 67.2 47.61C67.5333 47.3367 67.7 46.9467 67.7 46.44C67.7 45.9333 67.5333 45.5467 67.2 45.28C66.8667 45.0067 66.3833 44.87 65.75 44.87H64.05V48.01H65.75ZM78.3491 51L76.8391 48.85C76.6525 48.8633 76.5058 48.87 76.3991 48.87H74.6691V51H73.6691V44H76.3991C77.3058 44 78.0191 44.2167 78.5391 44.65C79.0591 45.0833 79.3191 45.68 79.3191 46.44C79.3191 46.98 79.1858 47.44 78.9191 47.82C78.6525 48.2 78.2725 48.4767 77.7791 48.65L79.4391 51H78.3491ZM76.3691 48.02C77.0025 48.02 77.4858 47.8833 77.8191 47.61C78.1525 47.3367 78.3191 46.9467 78.3191 46.44C78.3191 45.9333 78.1525 45.5467 77.8191 45.28C77.4858 45.0067 77.0025 44.87 76.3691 44.87H74.6691V48.02H76.3691ZM89.5148 50.13V51H84.4348V44H89.3748V44.87H85.4348V47.02H88.9448V47.87H85.4348V50.13H89.5148ZM101.124 51L101.114 45.9L98.584 50.15H98.124L95.594 45.93V51H94.634V44H95.454L98.374 48.92L101.254 44H102.074L102.084 51H101.124ZM107.685 44H108.685V51H107.685V44ZM117.18 51.08C116.247 51.08 115.52 50.8133 115 50.28C114.48 49.7467 114.22 48.98 114.22 47.98V44H115.22V47.94C115.22 49.44 115.877 50.19 117.19 50.19C117.83 50.19 118.32 50.0067 118.66 49.64C119 49.2667 119.17 48.7 119.17 47.94V44H120.14V47.98C120.14 48.9867 119.88 49.7567 119.36 50.29C118.84 50.8167 118.114 51.08 117.18 51.08ZM132.181 51L132.171 45.9L129.641 50.15H129.181L126.651 45.93V51H125.691V44H126.511L129.431 48.92L132.311 44H133.131L133.141 51H132.181ZM150.947 44V51H149.947V47.88H145.927V51H144.927V44H145.927V47.01H149.947V44H150.947ZM159.702 51.08C158.996 51.08 158.359 50.9267 157.792 50.62C157.226 50.3067 156.779 49.8767 156.452 49.33C156.132 48.7833 155.972 48.1733 155.972 47.5C155.972 46.8267 156.132 46.2167 156.452 45.67C156.779 45.1233 157.226 44.6967 157.792 44.39C158.359 44.0767 158.996 43.92 159.702 43.92C160.402 43.92 161.036 44.0767 161.602 44.39C162.169 44.6967 162.612 45.1233 162.932 45.67C163.252 46.21 163.412 46.82 163.412 47.5C163.412 48.18 163.252 48.7933 162.932 49.34C162.612 49.88 162.169 50.3067 161.602 50.62C161.036 50.9267 160.402 51.08 159.702 51.08ZM159.702 50.19C160.216 50.19 160.676 50.0733 161.082 49.84C161.496 49.6067 161.819 49.2867 162.052 48.88C162.292 48.4667 162.412 48.0067 162.412 47.5C162.412 46.9933 162.292 46.5367 162.052 46.13C161.819 45.7167 161.496 45.3933 161.082 45.16C160.676 44.9267 160.216 44.81 159.702 44.81C159.189 44.81 158.722 44.9267 158.302 45.16C157.889 45.3933 157.562 45.7167 157.322 46.13C157.089 46.5367 156.972 46.9933 156.972 47.5C156.972 48.0067 157.089 48.4667 157.322 48.88C157.562 49.2867 157.889 49.6067 158.302 49.84C158.722 50.0733 159.189 50.19 159.702 50.19ZM169.733 44.87H167.333V44H173.123V44.87H170.723V51H169.733V44.87ZM182.792 50.13V51H177.712V44H182.652V44.87H178.712V47.02H182.222V47.87H178.712V50.13H182.792ZM187.911 44H188.911V50.13H192.701V51H187.911V44ZM208.654 51.11L207.724 50.18C207.104 50.78 206.324 51.08 205.384 51.08C204.918 51.08 204.498 51.0033 204.124 50.85C203.751 50.6967 203.458 50.4833 203.244 50.21C203.038 49.93 202.934 49.6133 202.934 49.26C202.934 48.8333 203.064 48.4567 203.324 48.13C203.591 47.7967 204.028 47.4567 204.634 47.11C204.328 46.8033 204.111 46.5267 203.984 46.28C203.858 46.0333 203.794 45.7767 203.794 45.51C203.794 45.0367 203.964 44.6567 204.304 44.37C204.651 44.0833 205.111 43.94 205.684 43.94C206.218 43.94 206.641 44.07 206.954 44.33C207.268 44.59 207.424 44.9467 207.424 45.4C207.424 45.7533 207.308 46.07 207.074 46.35C206.848 46.63 206.468 46.9233 205.934 47.23L207.664 48.95C207.864 48.57 208.008 48.1467 208.094 47.68L208.864 47.93C208.744 48.5433 208.541 49.0767 208.254 49.53L209.194 50.47L208.654 51.11ZM205.684 44.64C205.371 44.64 205.124 44.72 204.944 44.88C204.771 45.0333 204.684 45.2367 204.684 45.49C204.684 45.67 204.731 45.8433 204.824 46.01C204.924 46.1767 205.114 46.4033 205.394 46.69C205.854 46.43 206.171 46.2067 206.344 46.02C206.524 45.8333 206.614 45.63 206.614 45.41C206.614 45.1767 206.531 44.99 206.364 44.85C206.204 44.71 205.978 44.64 205.684 44.64ZM205.444 50.28C206.138 50.28 206.708 50.06 207.154 49.62L205.164 47.64C204.684 47.9067 204.348 48.1567 204.154 48.39C203.968 48.6167 203.874 48.8733 203.874 49.16C203.874 49.4933 204.018 49.7633 204.304 49.97C204.598 50.1767 204.978 50.28 205.444 50.28ZM222.115 51.08C221.589 51.08 221.079 51 220.585 50.84C220.099 50.6733 219.715 50.46 219.435 50.2L219.805 49.42C220.072 49.66 220.412 49.8567 220.825 50.01C221.245 50.1567 221.675 50.23 222.115 50.23C222.695 50.23 223.129 50.1333 223.415 49.94C223.702 49.74 223.845 49.4767 223.845 49.15C223.845 48.91 223.765 48.7167 223.605 48.57C223.452 48.4167 223.259 48.3 223.025 48.22C222.799 48.14 222.475 48.05 222.055 47.95C221.529 47.8233 221.102 47.6967 220.775 47.57C220.455 47.4433 220.179 47.25 219.945 46.99C219.719 46.7233 219.605 46.3667 219.605 45.92C219.605 45.5467 219.702 45.21 219.895 44.91C220.095 44.61 220.395 44.37 220.795 44.19C221.195 44.01 221.692 43.92 222.285 43.92C222.699 43.92 223.105 43.9733 223.505 44.08C223.905 44.1867 224.249 44.34 224.535 44.54L224.205 45.34C223.912 45.1533 223.599 45.0133 223.265 44.92C222.932 44.82 222.605 44.77 222.285 44.77C221.719 44.77 221.292 44.8733 221.005 45.08C220.725 45.2867 220.585 45.5533 220.585 45.88C220.585 46.12 220.665 46.3167 220.825 46.47C220.985 46.6167 221.182 46.7333 221.415 46.82C221.655 46.9 221.979 46.9867 222.385 47.08C222.912 47.2067 223.335 47.3333 223.655 47.46C223.975 47.5867 224.249 47.78 224.475 48.04C224.709 48.3 224.825 48.65 224.825 49.09C224.825 49.4567 224.725 49.7933 224.525 50.1C224.325 50.4 224.022 50.64 223.615 50.82C223.209 50.9933 222.709 51.08 222.115 51.08ZM232.516 44C233.423 44 234.136 44.2167 234.656 44.65C235.176 45.0833 235.436 45.68 235.436 46.44C235.436 47.2 235.176 47.7967 234.656 48.23C234.136 48.6633 233.423 48.88 232.516 48.88H230.786V51H229.786V44H232.516ZM232.486 48.01C233.12 48.01 233.603 47.8767 233.936 47.61C234.27 47.3367 234.436 46.9467 234.436 46.44C234.436 45.9333 234.27 45.5467 233.936 45.28C233.603 45.0067 233.12 44.87 232.486 44.87H230.786V48.01H232.486ZM244.514 49.25H240.794L240.024 51H238.994L242.164 44H243.154L246.334 51H245.284L244.514 49.25ZM244.164 48.45L242.654 45.02L241.144 48.45H244.164Z" fill="white"/>
<path d="M2 33H53" stroke="white" stroke-width="3" stroke-linecap="round"/>
<path d="M13 40.9706H41.6765" stroke="white" stroke-width="3" stroke-linecap="round"/>
<path d="M22 49H32.3235" stroke="white" stroke-width="3" stroke-linecap="round"/>
<path d="M24.5639 22.5298L21.4052 17.3586C20.6369 16.1009 19.0228 15.6579 17.7202 16.3474C16.735 16.8688 15.8338 15.5311 16.6871 14.8139L18.6937 13.1276C20.0503 11.9876 22.0942 12.2655 23.0971 13.7264L26.29 18.3775C27.1081 19.5693 28.6599 20.0081 29.981 19.4213L35.2512 17.0806C36.7507 16.4146 38.5072 17.0769 39.1937 18.5671L40.8244 22.1069C41.3136 23.1688 39.8949 24.0637 39.1473 23.1647L38.2511 22.0871C37.4292 21.0987 36.0688 20.7438 34.8688 21.2048L28.1998 23.7665C26.8482 24.2856 25.3186 23.7654 24.5639 22.5298Z" fill="white"/>
<path d="M8.77979 31.5857L10.1466 30.9678L10.1466 30.9678L8.77979 31.5857ZM7.62035 32.6488C7.97867 33.3957 8.87465 33.7107 9.62157 33.3524C10.3685 32.9941 10.6835 32.0981 10.3252 31.3512L7.62035 32.6488ZM44.6748 31.3512C44.3165 32.0981 44.6315 32.9941 45.3784 33.3524C46.1254 33.7107 47.0213 33.3957 47.3797 32.6488L44.6748 31.3512ZM8.5 23.3C8.5 12.9309 16.9927 4.5 27.5 4.5V1.5C15.3636 1.5 5.5 11.2464 5.5 23.3H8.5ZM27.5 4.5C38.0073 4.5 46.5 12.9309 46.5 23.3H49.5C49.5 11.2464 39.6364 1.5 27.5 1.5V4.5ZM10.1466 30.9678C9.08877 28.6278 8.5 26.0338 8.5 23.3H5.5C5.5 26.4689 6.18331 29.4835 7.41297 32.2036L10.1466 30.9678ZM10.3252 31.3512C10.2643 31.2242 10.2047 31.0964 10.1466 30.9678L7.41297 32.2036C7.48046 32.3529 7.5496 32.5013 7.62035 32.6488L10.3252 31.3512ZM46.5 23.3C46.5 26.1837 45.8449 28.9122 44.6748 31.3512L47.3797 32.6488C48.7395 29.8141 49.5 26.6431 49.5 23.3H46.5Z" fill="white"/>
</svg>
